<?xml version="1.0" encoding="utf-8"?>
<!-- Generator: Adobe Illustrator 21.0.0, SVG Export Plug-In . SVG Version: 6.00 Build 0)  -->
<svg version="1.1" id="Layer_1" xmlns="http://www.w3.org/2000/svg" xmlns:xlink="http://www.w3.org/1999/xlink" x="0px" y="0px"
	 viewBox="0 0 64 64" style="enable-background:new 0 0 64 64;" xml:space="preserve">
<style type="text/css">
	.st0{fill:#455A64;stroke:#37474F;stroke-linecap:round;stroke-linejoin:round;stroke-miterlimit:10;}
	.st1{fill:#78909C;stroke:#37474F;stroke-linecap:round;stroke-linejoin:round;stroke-miterlimit:10;}
	.st2{fill:#ECEFF1;stroke:#37474F;stroke-linecap:round;stroke-linejoin:round;stroke-miterlimit:10;}
	.st3{fill:none;stroke:#FFFFFF;stroke-linecap:round;stroke-linejoin:round;stroke-miterlimit:10;}
	.st4{fill:#FFCA28;stroke:#37474F;stroke-linecap:round;stroke-linejoin:round;stroke-miterlimit:10;}
	.st5{fill:none;stroke:#37474F;stroke-linecap:round;stroke-linejoin:round;stroke-miterlimit:10;}
	.st6{fill:#B0BEC5;}
	.st7{fill:#37474F;}
	.st8{fill:#455A64;}
	.st9{fill:#9CCC65;stroke:#37474F;stroke-linecap:round;stroke-linejoin:round;stroke-miterlimit:10;}
	.st10{fill:none;stroke:#C5E1A5;stroke-linecap:round;stroke-linejoin:round;stroke-miterlimit:10;}
	.st11{fill:#26C6DA;stroke:#37474F;stroke-linecap:round;stroke-linejoin:round;stroke-miterlimit:10;}
	.st12{fill:#EF5350;stroke:#37474F;stroke-linecap:round;stroke-linejoin:round;stroke-miterlimit:10;}
	.st13{fill:#B0BEC5;stroke:#37474F;stroke-linecap:round;stroke-linejoin:round;stroke-miterlimit:10;}
	.st14{fill:none;stroke:#EF9A9A;stroke-linecap:round;stroke-linejoin:round;stroke-miterlimit:10;}
	.st15{fill:none;stroke:#FFE082;stroke-linecap:round;stroke-linejoin:round;stroke-miterlimit:10;}
	.st16{fill:#D32F2F;stroke:#37474F;stroke-linecap:round;stroke-linejoin:round;stroke-miterlimit:10;}
	.st17{fill:#0097A7;stroke:#37474F;stroke-linecap:round;stroke-linejoin:round;stroke-miterlimit:10;}
	.st18{fill:#689F38;stroke:#37474F;stroke-linecap:round;stroke-linejoin:round;stroke-miterlimit:10;}
	.st19{fill:#FFA000;stroke:#37474F;stroke-linecap:round;stroke-linejoin:round;stroke-miterlimit:10;}
	.st20{fill:#FFA000;}
	.st21{fill:#FF6F00;}
	.st22{fill:#D32F2F;}
	.st23{fill:#0097A7;}
	.st24{fill:none;stroke:#80DEEA;stroke-linecap:round;stroke-linejoin:round;stroke-miterlimit:10;}
	.st25{fill:#689F38;}
	.st26{fill:none;stroke:#B0BEC5;stroke-linecap:round;stroke-linejoin:round;stroke-miterlimit:10;}
	.st27{fill:#78909C;stroke:#37474F;stroke-miterlimit:10;}
	.st28{fill:#78909C;}
	.st29{fill:#B71C1C;}
	.st30{fill:#F57F17;}
	.st31{fill:#006064;}
	.st32{fill:#26A69A;stroke:#37474F;stroke-linecap:round;stroke-linejoin:round;stroke-miterlimit:10;}
</style>
<g>
	<path class="st0" d="M45.5,63.5h-38c-2.8,0-5-2.2-5-5v-42c0-2.8,2.2-5,5-5h38c2.8,0,5,2.2,5,5v42C50.5,61.3,48.3,63.5,45.5,63.5z"
		/>
	<path class="st1" d="M45.5,59.5h-38c-2.8,0-5-2.2-5-5v-42c0-2.8,2.2-5,5-5h38c2.8,0,5,2.2,5,5v42C50.5,57.3,48.3,59.5,45.5,59.5z"
		/>
	<path class="st2" d="M44,55.5H9c-1.4,0-2.5-1.1-2.5-2.5V14c0-1.4,1.1-2.5,2.5-2.5h35c1.4,0,2.5,1.1,2.5,2.5v39
		C46.5,54.4,45.4,55.5,44,55.5z"/>
	<path class="st3" d="M8.5,18v-4c0-0.3,0.2-0.5,0.5-0.5h4"/>
	<path class="st4" d="M31.5,5.5c0-2.8-2.2-5-5-5s-5,2.2-5,5h-3c-0.6,0-1,0.4-1,1v6c0,0.6,0.4,1,1,1h16c0.6,0,1-0.4,1-1v-6
		c0-0.6-0.4-1-1-1H31.5z M26.5,7.5c-1.1,0-2-0.9-2-2c0-1.1,0.9-2,2-2s2,0.9,2,2C28.5,6.6,27.6,7.5,26.5,7.5z"/>
	<line class="st5" x1="25.5" y1="21.5" x2="36.5" y2="21.5"/>
	<line class="st5" x1="25.5" y1="34.5" x2="34.5" y2="34.5"/>
	<g>
		<path class="st5" d="M18,26h-4c-1.4,0-2.5-1.1-2.5-2.5v-4c0-1.4,1.1-2.5,2.5-2.5h4c1.4,0,2.5,1.1,2.5,2.5v4
			C20.5,24.9,19.4,26,18,26z"/>
	</g>
	<g>
		<path class="st5" d="M18,38h-4c-1.4,0-2.5-1.1-2.5-2.5v-4c0-1.4,1.1-2.5,2.5-2.5h4c1.4,0,2.5,1.1,2.5,2.5v4
			C20.5,36.9,19.4,38,18,38z"/>
	</g>
	<g>
		<path class="st5" d="M18,50h-4c-1.4,0-2.5-1.1-2.5-2.5v-4c0-1.4,1.1-2.5,2.5-2.5h4c1.4,0,2.5,1.1,2.5,2.5v4
			C20.5,48.9,19.4,50,18,50z"/>
	</g>
	<path class="st6" d="M46,53V31.5c-9.1,0.3-16.5,7.8-16.5,17c0,2.3,0.5,4.5,1.3,6.5H44C45.1,55,46,54.1,46,53z"/>
	<g>
		<path class="st7" d="M45.5,60H34c1.1,1.2,2.3,2.2,3.7,3h7.8c2.5,0,4.5-2,4.5-4.5v-0.8C49,59.1,47.4,60,45.5,60z"/>
		<path class="st8" d="M50,54.5V31.9c-1-0.2-2-0.3-3-0.3V53c0,1.7-1.3,3-3,3H31.3c0.5,1.1,1.2,2.1,1.9,3h12.3C48,59,50,57,50,54.5z"
			/>
	</g>
	<circle class="st9" cx="46.5" cy="48.5" r="15"/>
	<path class="st10" d="M33.5,48.5c0-7.2,5.8-13,13-13"/>
	<g>
		<path class="st2" d="M37.8,49.7l4.9,4.9c0.6,0.6,1.5,0.6,2.1,0l10.3-10.3c0.6-0.6,0.6-1.5,0-2.1c-0.6-0.6-1.5-0.6-2.1,0l-9.2,9.2
			L40,47.6c-0.6-0.6-1.5-0.6-2.1,0C37.3,48.2,37.3,49.2,37.8,49.7z"/>
	</g>
</g>
</svg>
