<svg xmlns="http://www.w3.org/2000/svg" viewBox="0 0 340 340"><g id="Layer_6" data-name="Layer 6"><path d="M260.518,171.341l-5.6-3.045a9.728,9.728,0,0,1-6.231-3.387L237.3,158.715H169.52l-11.2,5.836a11.357,11.357,0,0,1-6.281,3.274l-.927.483a23.235,23.235,0,0,0-12.388,21.91l6.261,108.257s0,5.657,6.515,10.2a19.928,19.928,0,0,0,11.437,3.47h80.933a19.931,19.931,0,0,0,11.438-3.47c6.514-4.548,6.514-10.2,6.514-10.2Z" style="fill:#797996"/><path d="M203.408,154.748l-26.1,27.089a191.1,191.1,0,0,0,13.746,25.075h24.71a191.214,191.214,0,0,0,13.746-25.075Z" style="fill:#cbd5ea"/><path d="M193.015,188.408l-1.959,18.5a196.8,196.8,0,0,0,12.352,17.235,196.8,196.8,0,0,0,12.352-17.235l-2.652-25.037C206.6,180.305,199.893,182.686,193.015,188.408Z" style="fill:#ff6d8d"/><path d="M210.376,156.08H196.439l-3.424,32.328c3.041-2.33,9.683-6.238,20.093-6.534Z" style="fill:#e5486e"/><path d="M220.673,149.721h-34.53l-16.623,8.994a116.821,116.821,0,0,0,7.794,23.119l26.094-16.359L229.5,181.834a116.753,116.753,0,0,0,7.793-23.119Z" style="fill:#fff"/><polygon points="186.143 139.912 186.143 149.721 203.408 165.475 220.673 149.721 220.673 138.23 186.143 139.912" style="fill:#ffd4ca"/><path d="M174.934,295.22s69.446-.73,69.6-1.941c.078-.621,1.963-4.938,3.778-8.987a5.149,5.149,0,0,0-4.709-7.248c-2.437,0-4.572-.059-6.34-.131a5.974,5.974,0,0,1-5.737-5.97v-8.065a21.631,21.631,0,0,0-21.631-21.631h-6.484c-32.116-24.1-44.876-60.824-48.636-74.255a15.741,15.741,0,0,1-2.729.833l-.927.483a23.235,23.235,0,0,0-12.388,21.91l5.4,93.4,1.933,6.937Z" style="fill:#595975"/><path d="M200.125,288.543h-44.4v-35.66h44.4a17.83,17.83,0,0,1,17.83,17.83h0A17.83,17.83,0,0,1,200.125,288.543Z" style="fill:#e0898d"/><path d="M186.143,139.912c14.115,3.087,29.219.617,34.53-1.682V117.7h-34.53Z" style="fill:#f99c9c"/><path d="M260.518,171.341l4.331,3.092a29.693,29.693,0,0,1,11.614,17.2c4.293,17.772,12.782,54.273,17.81,84.95a38.028,38.028,0,0,1-20.9,40.451C259.209,323.838,237.846,330,206.936,330l-.973-41.457s28.589-3,45.716-11.673c0,0-1.459-20.69-5.35-37.7Z" style="fill:#797996"/><path d="M123.407,330H81.538a20.464,20.464,0,0,1-20.463-20.463v-.531a20.463,20.463,0,0,1,20.463-20.463h41.869Z" style="fill:#76ade2"/><path d="M167.159,330H120.314c-27.434-8.108-19.609-38.867.158-41.457H172.4Z" style="fill:#fff"/><path d="M99.276,254.434a17.707,17.707,0,0,1,9.013,12.451,6.062,6.062,0,0,1,.065,7.5,17.5,17.5,0,0,1-8.531,12.6.823.823,0,0,0,.4,1.553h56.065c21.117-5.671,24.392-28.628,0-35.66H99.68A.822.822,0,0,0,99.276,254.434Z" style="fill:#fff"/><path d="M49,193.086a20.635,20.635,0,0,1,5.546,11.159c1.465,2.828,1.647,5.378.117,7.559a19.547,19.547,0,0,1-5.25,11.214,1.687,1.687,0,0,0,1.217,2.863h88.874a17.83,17.83,0,0,0,17.83-17.83h0a17.83,17.83,0,0,0-17.83-17.83H50.213A1.686,1.686,0,0,0,49,193.086Z" style="fill:#fff"/><path d="M117.9,252.883H70.9a6.854,6.854,0,0,1-6.854-6.854V232.735a6.854,6.854,0,0,1,6.854-6.854h58.405Q127.441,239.381,117.9,252.883Z" style="fill:#ffc676"/><path d="M248.687,164.909c-6.279,19.821-22.89,52.305-41.4,70.85a6.137,6.137,0,0,1-8.657,0c-18.853-18.889-33.821-51.466-40.308-71.209l-6.281,3.274c6.934,20.573,22.3,53.507,41.635,72.88a13.136,13.136,0,0,0,18.565,0c18.8-18.84,35.74-51.548,42.675-72.408Z" style="fill:#fff"/><path d="M170.051,86.062s-18.359-3.566-22.6-22.083a49.518,49.518,0,0,1-.367-18.971c2.389-14.464,15.043-25.208,29.689-24.571q.63.027,1.277.076S187.312,10,207.711,10c27.3,0,46.38,19.724,50.694,51.384,2.6,19.07-12.517,36.227-31.742,35.321-.453-.022-.912-.05-1.377-.087Z" style="fill:#595975"/><path d="M162.5,77.183h-4.475a12.745,12.745,0,0,0-12.745,12.745v5.438a12.745,12.745,0,0,0,12.745,12.745H163.3Z" style="fill:#f99c9c"/><path d="M230.464,80.142s15.95.677,15.95,9.786v5.438a12.745,12.745,0,0,1-12.745,12.745H228.4Z" style="fill:#f99c9c"/><path d="M183.7,40.285s1.569,35.616,46.761,42.834V106.7a24.025,24.025,0,0,1-15.977,22.816,42.926,42.926,0,0,1-13.994,2.094s-22.106,3.205-34.036-14.411a33.16,33.16,0,0,1-5.507-18.621V81.745a29.776,29.776,0,0,1,.928-7.423C163.806,66.822,169.332,51.322,183.7,40.285Z" style="fill:#ffd4ca"/><path d="M230.464,91.389V80.142C185.272,72.924,183.7,40.285,183.7,40.285S173.86,81.039,230.464,91.389Z" style="fill:#f99c9c"/><circle cx="173.917" cy="92.486" r="15.023" style="fill:#fff"/><path d="M197.594,119.871a18.468,18.468,0,0,1-7.432-1.41,3.471,3.471,0,0,1,2.787-6.358,11.545,11.545,0,0,0,4.645.826,13.3,13.3,0,0,0,5.155-.933,3.471,3.471,0,0,1,2.688,6.4A20.281,20.281,0,0,1,197.594,119.871Z" style="fill:#f99c9c"/><circle cx="217.422" cy="91.012" r="15.123" style="fill:#fff"/><path d="M139.361,204.3H54.552a24.619,24.619,0,0,1,.093,7.5h84.716a3.751,3.751,0,1,0,0-7.5Z" style="fill:#becde2"/><path d="M159.664,270.638a3.751,3.751,0,0,0-3.751-3.751H108.28a20.719,20.719,0,0,1,.068,7.5h47.565A3.75,3.75,0,0,0,159.664,270.638Z" style="fill:#becde2"/><path d="M201.887,297.652h-76.87a3.751,3.751,0,1,0,0,7.5h76.87Z" style="fill:#becde2"/><path d="M201.887,320.891v-7.5H120.322a3.751,3.751,0,1,0,0,7.5Z" style="fill:#becde2"/><path d="M159.664,307.474c-1.408,9.25,3.015,17.142,7.5,22.526h34.728V288.543H172.4A26.038,26.038,0,0,0,159.664,307.474Z" style="fill:#becde2"/><path d="M205.963,288.543s8.367,5.272,8.367,20.728c0,0,.465,13.938-7.394,20.729H190.17a20.729,20.729,0,0,1-20.728-20.729h0a20.728,20.728,0,0,1,20.728-20.728Z" style="fill:#ffd4ca"/><path d="M117.9,252.883h49.027a6.854,6.854,0,0,0,6.853-6.854V232.735a6.853,6.853,0,0,0-6.853-6.854H129.306Z" style="fill:#f4914e"/><path d="M43.824,222.675a3.5,3.5,0,0,0,1.4,6.706H61.116a10.265,10.265,0,0,0-.569,3.353v13.295A10.366,10.366,0,0,0,70.9,256.383H96.856c7.706,2.567,10.192,9.527,9.919,15.27-.269,5.662-3.394,11.941-9.753,13.389H81.538a23.991,23.991,0,0,0-23.963,23.964v.531A23.99,23.99,0,0,0,81.538,333.5h125.4c26.7,0,49.568-4.48,67.957-13.315a41.711,41.711,0,0,0,22.835-44.171c-5-30.484-13.336-66.47-17.862-85.207a33.216,33.216,0,0,0-12.983-19.223c-.078-.055-.157-.107-.239-.156l-42.472-23.793V128.187a28.486,28.486,0,0,0,9.355-16.576h.142a16.263,16.263,0,0,0,16.245-16.245V92.175a35,35,0,0,0,11.959-31.263C257.3,27.349,236.546,6.5,207.711,6.5c-17.635,0-27.631,7.391-31,10.432a32.561,32.561,0,0,0-33.078,27.505,52.5,52.5,0,0,0,.408,20.323A31.75,31.75,0,0,0,149.2,76.311a16.233,16.233,0,0,0-7.416,13.617v5.438a16.263,16.263,0,0,0,16.245,16.245h1.706a34.639,34.639,0,0,0,3.825,7.551,37.71,37.71,0,0,0,19.084,14.56v13.913L149.488,165.21a26.563,26.563,0,0,0-14.2,21.511H45.228a3.5,3.5,0,0,0-1.717,6.55c6.22,3.5,8.14,10.662,7.864,16.194C51.062,215.71,48.169,220.772,43.824,222.675ZM70.9,249.383a3.358,3.358,0,0,1-3.354-3.354V232.734a3.357,3.357,0,0,1,3.354-3.353h96.021a3.357,3.357,0,0,1,3.354,3.353v13.295a3.358,3.358,0,0,1-3.354,3.354H70.9Zm37.954,7h46.867a14.33,14.33,0,0,1,0,28.659H109.154a23,23,0,0,0,4.613-13.057A22.576,22.576,0,0,0,108.855,256.383ZM81.538,326.5a16.983,16.983,0,0,1-16.963-16.963v-.531a16.983,16.983,0,0,1,16.963-16.964h24.855a24.182,24.182,0,0,0,0,34.458Zm41.869,0a17.229,17.229,0,0,1,0-34.458h49.749a24.181,24.181,0,0,0,0,34.458Zm48.068-70.117h28.65a14.33,14.33,0,1,1,0,28.659h-28.65a21.2,21.2,0,0,0,0-28.659ZM205.536,326.5H190.17a17.229,17.229,0,0,1,0-34.458h14.588c1.741,1.564,6.072,6.532,6.072,17.229,0,.035,0,.076,0,.111C210.835,309.5,211.1,320.606,205.536,326.5Zm27.755-165.972A112.164,112.164,0,0,1,227.9,176.7l-18.734-11.744L221.2,153.983Zm-8.248,22.641c-2.026,4.3-4.331,8.681-6.89,13.111l-1.977-18.669Zm-21.635-13.563,5.229,3.278,3.511,33.162c-3.491,5.35-6.636,9.658-8.74,12.427-2.1-2.769-5.25-7.077-8.741-12.427l3.512-33.162Zm-13.765-21.43V135.567c3.448.624,20.029,1.736,27.529-2.763v15.372l-13.764,12.561Zm28-68.815a11.651,11.651,0,1,1-11.651,11.651A11.664,11.664,0,0,1,217.638,79.361Zm-18.345,8.377a34.312,34.312,0,0,0-7.205-.037,18.6,18.6,0,0,0-26.641-13.173c1.827-6.792,6.151-18.207,15.939-27.635,2.146,7.7,8.173,20.613,24.977,29.3A18.64,18.64,0,0,0,199.293,87.738Zm43.621,7.628a9.249,9.249,0,0,1-8.95,9.23v-4.587a18.478,18.478,0,0,0,1.075-15.654c3.85.811,7.875,2.448,7.875,5.573Zm-94.131,0V89.928a9.249,9.249,0,0,1,8.7-9.217c-.01.345-.032.688-.032,1.034v.447a18.564,18.564,0,0,0,.039,18.061,39.053,39.053,0,0,0,.441,4.353A9.252,9.252,0,0,1,148.783,95.366Zm9.707-21.743s-1.734.107-2.357.18a24.561,24.561,0,0,1-5.266-10.6,45.553,45.553,0,0,1-.326-17.621,25.575,25.575,0,0,1,26.082-21.644c.384.017.775.04,1.17.069a3.555,3.555,0,0,0,2.873-1.16c.345-.382,8.658-9.343,27.045-9.343,25.445,0,43.1,18.077,47.227,48.357a28.006,28.006,0,0,1-6.74,22.225c-3.7-5.532-12.575-7.313-18.677-7.433a18.317,18.317,0,0,0-14.255-4.12c-26.5-10.32-28.016-31.524-28.067-32.412a3.5,3.5,0,0,0-5.628-2.608C166.563,49.036,160.669,65.148,158.49,73.623Zm3.635,17.567a11.651,11.651,0,1,1,11.651,11.651A11.664,11.664,0,0,1,162.125,91.19Zm7.23,24.047a34.678,34.678,0,0,1-3.456-7.165,18.6,18.6,0,0,0,26.179-13.325,27,27,0,0,1,7.3.063,18.611,18.611,0,0,0,27.57,12.338c-.168,8.6-5.143,15.919-13.4,19.643-3.991,1.8-11.028,2.391-13.4,2.467C200.081,129.26,179.031,131.467,169.355,115.237Zm16.266,38.746,12.025,10.974L178.913,176.7a112.163,112.163,0,0,1-5.388-16.173Zm5.018,23.628-1.977,18.669c-2.558-4.429-4.863-8.811-6.889-13.111Zm-37.9-6.2,3.808-2h0l10.614-5.52a126.785,126.785,0,0,0,6.919,19.3c.011.026.015.053.027.08a193.3,193.3,0,0,0,14,25.543c.005.008.013.013.018.022a198.8,198.8,0,0,0,12.583,17.547,3.5,3.5,0,0,0,5.391,0,198.51,198.51,0,0,0,12.581-17.545c.006-.009.015-.015.022-.025a193.3,193.3,0,0,0,14-25.542c.012-.027.016-.054.027-.08a126.835,126.835,0,0,0,6.9-19.219l9.675,5.26,13.625,8.135a26.207,26.207,0,0,1,10.133,15.089c4.5,18.642,12.8,54.435,17.758,84.7a34.668,34.668,0,0,1-18.957,36.729c-15.793,7.588-35.215,11.776-57.792,12.5,3.889-7.465,3.785-16.2,3.76-17.155-.009-8.518-2.375-14.34-4.805-18.076,9.671-1.444,27.7-4.805,40.235-11.151a3.5,3.5,0,0,0,1.91-3.369c-.06-.856-1.523-21.157-5.429-38.236a3.5,3.5,0,1,0-6.824,1.561c3.025,13.228,4.574,28.94,5.08,34.806-9.415,4.283-21.778,7.021-30.725,8.59a21.289,21.289,0,0,0-17.147-33.962H176.708a10.3,10.3,0,0,0,.568-3.354V232.734a10.365,10.365,0,0,0-10.354-10.353H155.259a21.273,21.273,0,0,0-12.966-35.456A19.606,19.606,0,0,1,152.744,171.406Zm-13.238,22.315a14.33,14.33,0,1,1,0,28.66H54.432a24.946,24.946,0,0,0,3.934-12.567,26.034,26.034,0,0,0-4.309-16.093Z" style="fill:#3c3c4f"/></g></svg>